<svg width="512" height="512" viewBox="0 0 512 512" fill="none" xmlns="http://www.w3.org/2000/svg">
  <rect width="512" height="512" rx="92" fill="url(#bg)"/>
  <rect x="39" y="39" width="434" height="434" rx="84" fill="url(#panel)" stroke="url(#panelStroke)" stroke-width="4"/>
  <circle cx="256" cy="256" r="170" stroke="url(#orbit)" stroke-width="7" stroke-linecap="round" stroke-dasharray="520 160"/>
  <circle cx="86" cy="255" r="13" fill="#35F5FF" filter="url(#cyanGlow)"/>
  <circle cx="257" cy="426" r="13" fill="#AEB5FF" filter="url(#violetGlow)"/>
  <circle cx="428" cy="241" r="13" fill="#C5A1FF" filter="url(#violetGlow)"/>

  <path d="M143 132C143 107.7 162.7 88 187 88H281C292.7 88 303.9 92.6 312.1 100.9L363.1 151.9C371.4 160.1 376 171.3 376 183V342C376 366.3 356.3 386 332 386H187C162.7 386 143 366.3 143 342V132Z" fill="url(#doc)" stroke="url(#docStroke)" stroke-width="9"/>
  <path d="M287 94V160C287 175.5 299.5 188 315 188H370" fill="url(#fold)" stroke="url(#docStroke)" stroke-width="9" stroke-linejoin="round"/>
  <rect x="188" y="191" width="80" height="14" rx="7" fill="url(#line1)"/>
  <rect x="188" y="230" width="131" height="14" rx="7" fill="url(#line2)"/>
  <rect x="188" y="269" width="82" height="14" rx="7" fill="url(#line3)"/>

  <path d="M321 235C328.5 230.7 337.5 230.7 345 235C367.7 248 390.8 256.8 417.6 262.3C430.5 264.9 440 276.2 440 289.5V344.8C440 386.1 397.1 422 344.9 441.6C337.2 444.5 328.8 444.5 321.1 441.6C268.9 422 226 386.1 226 344.8V289.5C226 276.2 235.5 264.9 248.4 262.3C275.2 256.8 298.3 248 321 235Z" fill="url(#shield)" stroke="url(#shieldStroke)" stroke-width="10" stroke-linejoin="round"/>

  <path d="M333 287L359 302V332L333 347L307 332V302L333 287Z" fill="url(#cubeTop)" stroke="#61F4FF" stroke-width="5" stroke-linejoin="round"/>
  <path d="M291 351L317 366V396L291 411L265 396V366L291 351Z" fill="url(#cubeLeft)" stroke="#56EAFE" stroke-width="5" stroke-linejoin="round"/>
  <path d="M375 351L401 366V396L375 411L349 396V366L375 351Z" fill="url(#cubeRight)" stroke="#8E8CFF" stroke-width="5" stroke-linejoin="round"/>
  <path d="M333 347V377M317 381H349M307 332L291 351M359 332L375 351" stroke="url(#nodeLine)" stroke-width="6" stroke-linecap="round"/>

  <defs>
    <filter id="cyanGlow" x="53" y="222" width="66" height="66" filterUnits="userSpaceOnUse" color-interpolation-filters="sRGB">
      <feGaussianBlur stdDeviation="10"/>
    </filter>
    <filter id="violetGlow" x="224" y="208" width="237" height="251" filterUnits="userSpaceOnUse" color-interpolation-filters="sRGB">
      <feGaussianBlur stdDeviation="10"/>
    </filter>
    <linearGradient id="bg" x1="0" y1="0" x2="512" y2="512" gradientUnits="userSpaceOnUse">
      <stop stop-color="#05071A"/>
      <stop offset="1" stop-color="#090B22"/>
    </linearGradient>
    <linearGradient id="panel" x1="72" y1="66" x2="445" y2="465" gradientUnits="userSpaceOnUse">
      <stop stop-color="#171B5C" stop-opacity=".72"/>
      <stop offset="1" stop-color="#0C0E31" stop-opacity=".74"/>
    </linearGradient>
    <linearGradient id="panelStroke" x1="63" y1="38" x2="455" y2="462" gradientUnits="userSpaceOnUse">
      <stop stop-color="#5753B9" stop-opacity=".55"/>
      <stop offset="1" stop-color="#262848" stop-opacity=".8"/>
    </linearGradient>
    <linearGradient id="orbit" x1="82" y1="251" x2="428" y2="253" gradientUnits="userSpaceOnUse">
      <stop stop-color="#28F4FF"/>
      <stop offset=".54" stop-color="#536BFF"/>
      <stop offset="1" stop-color="#C66BFF"/>
    </linearGradient>
    <linearGradient id="doc" x1="154" y1="104" x2="363" y2="381" gradientUnits="userSpaceOnUse">
      <stop stop-color="#1DF8FF"/>
      <stop offset=".45" stop-color="#2266FF"/>
      <stop offset="1" stop-color="#B84DFF"/>
    </linearGradient>
    <linearGradient id="docStroke" x1="157" y1="96" x2="378" y2="370" gradientUnits="userSpaceOnUse">
      <stop stop-color="#77FFFF"/>
      <stop offset=".55" stop-color="#5C8CFF"/>
      <stop offset="1" stop-color="#F079FF"/>
    </linearGradient>
    <linearGradient id="fold" x1="289" y1="99" x2="370" y2="188" gradientUnits="userSpaceOnUse">
      <stop stop-color="#8EFFFF"/>
      <stop offset="1" stop-color="#8B8BFF"/>
    </linearGradient>
    <linearGradient id="line1" x1="188" y1="198" x2="268" y2="198" gradientUnits="userSpaceOnUse">
      <stop stop-color="#71FFFF"/>
      <stop offset="1" stop-color="#72B7FF"/>
    </linearGradient>
    <linearGradient id="line2" x1="188" y1="237" x2="319" y2="237" gradientUnits="userSpaceOnUse">
      <stop stop-color="#80FFFF"/>
      <stop offset="1" stop-color="#707AFF"/>
    </linearGradient>
    <linearGradient id="line3" x1="188" y1="276" x2="270" y2="276" gradientUnits="userSpaceOnUse">
      <stop stop-color="#91FFFF"/>
      <stop offset="1" stop-color="#7F7CFF"/>
    </linearGradient>
    <linearGradient id="shield" x1="227" y1="233" x2="438" y2="439" gradientUnits="userSpaceOnUse">
      <stop stop-color="#1BFFFF" stop-opacity=".88"/>
      <stop offset=".5" stop-color="#0B1D63" stop-opacity=".93"/>
      <stop offset="1" stop-color="#17184A"/>
    </linearGradient>
    <linearGradient id="shieldStroke" x1="229" y1="237" x2="442" y2="438" gradientUnits="userSpaceOnUse">
      <stop stop-color="#4FFFF7"/>
      <stop offset=".52" stop-color="#6890FF"/>
      <stop offset="1" stop-color="#FF81F4"/>
    </linearGradient>
    <linearGradient id="cubeTop" x1="307" y1="287" x2="359" y2="347" gradientUnits="userSpaceOnUse">
      <stop stop-color="#39F9FF"/>
      <stop offset="1" stop-color="#4F67FF"/>
    </linearGradient>
    <linearGradient id="cubeLeft" x1="265" y1="351" x2="317" y2="411" gradientUnits="userSpaceOnUse">
      <stop stop-color="#42FBFF"/>
      <stop offset="1" stop-color="#266DFF"/>
    </linearGradient>
    <linearGradient id="cubeRight" x1="349" y1="351" x2="401" y2="411" gradientUnits="userSpaceOnUse">
      <stop stop-color="#4FD9FF"/>
      <stop offset="1" stop-color="#A861FF"/>
    </linearGradient>
    <linearGradient id="nodeLine" x1="291" y1="332" x2="375" y2="396" gradientUnits="userSpaceOnUse">
      <stop stop-color="#56F5FF"/>
      <stop offset="1" stop-color="#9B8DFF"/>
    </linearGradient>
  </defs>
</svg>
